<svg width="220" height="106" viewBox="0 0 220 106" fill="none" xmlns="http://www.w3.org/2000/svg">
<path d="M13.3301 14.6953H1.55273V16.248C2.70508 16.4434 3.58398 16.6973 4.18945 17.0098C4.79492 17.3223 5.20508 17.7812 5.41992 18.3867C5.6543 18.9727 5.76172 19.7832 5.74219 20.8184L5.50781 49.7637C5.50781 51.1699 5.40039 52.2539 5.18555 53.0156C4.99023 53.7773 4.58008 54.334 3.95508 54.6855C3.33008 55.0176 2.36328 55.2715 1.05469 55.4473V57H13.0078V55.4473C11.6602 55.291 10.6641 55.0469 10.0195 54.7148C9.375 54.3828 8.94531 53.8359 8.73047 53.0742C8.51562 52.293 8.38867 51.1797 8.34961 49.7344L7.79297 18.5332H6.88477L32.6953 57H38.6133L38.9062 21.9316C38.9258 20.5254 39.0332 19.4414 39.2285 18.6797C39.4238 17.918 39.834 17.3613 40.459 17.0098C41.1035 16.6582 42.0703 16.4043 43.3594 16.248V14.6953H31.4355V16.248C32.7637 16.3848 33.75 16.6289 34.3945 16.9805C35.0586 17.3125 35.4883 17.8691 35.6836 18.6504C35.8984 19.4121 36.0254 20.5156 36.0645 21.9609L36.6504 50.584H37.3828L13.3301 14.6953ZM57.2461 51.7559V19.9395C57.2461 19.0801 57.3438 18.416 57.5391 17.9473C57.7344 17.459 58.1445 17.0977 58.7695 16.8633C59.4141 16.6094 60.3809 16.4043 61.6699 16.248V14.6953H45.498V16.248C46.7871 16.4043 47.7441 16.6094 48.3691 16.8633C49.0137 17.0977 49.4336 17.459 49.6289 17.9473C49.8242 18.416 49.9219 19.0801 49.9219 19.9395V51.7559C49.9219 52.6152 49.8242 53.2891 49.6289 53.7773C49.4336 54.2461 49.0137 54.5977 48.3691 54.832C47.7441 55.0664 46.7871 55.2715 45.498 55.4473V57H61.6699V55.4473C60.3809 55.2715 59.4141 55.0664 58.7695 54.832C58.1445 54.5977 57.7344 54.2461 57.5391 53.7773C57.3438 53.2891 57.2461 52.6152 57.2461 51.7559ZM65.0098 35.6719C65.0098 39.0898 65.5762 42.1562 66.709 44.8711C67.8613 47.5859 69.4434 49.9004 71.4551 51.8145C73.4863 53.7285 75.8398 55.1934 78.5156 56.209C81.1914 57.2051 84.0723 57.7031 87.1582 57.7031C89.1699 57.7031 91.0742 57.5371 92.8711 57.2051C94.668 56.8926 96.2598 56.4922 97.6465 56.0039C99.0332 55.4961 100.107 54.959 100.869 54.3926L101.221 44.5488H99.7852C99.3555 46.4629 98.7695 48.123 98.0273 49.5293C97.2852 50.916 96.3965 52.0488 95.3613 52.9277C94.3262 53.8066 93.1641 54.4609 91.875 54.8906C90.5859 55.3008 89.1699 55.5059 87.627 55.5059C85.3613 55.5059 83.3301 54.9785 81.5332 53.9238C79.7559 52.8691 78.2422 51.4043 76.9922 49.5293C75.7617 47.6543 74.8145 45.4863 74.1504 43.0254C73.5059 40.5449 73.1836 37.8984 73.1836 35.0859C73.1836 31.2969 73.75 27.9863 74.8828 25.1543C76.0156 22.3223 77.6562 20.125 79.8047 18.5625C81.9531 16.9805 84.5215 16.1895 87.5098 16.1895C89.1309 16.1895 90.5957 16.4238 91.9043 16.8926C93.2324 17.3418 94.4043 18.0156 95.4199 18.9141C96.4355 19.8125 97.2949 20.9258 97.998 22.2539C98.7012 23.582 99.248 25.1152 99.6387 26.8535H101.074L100.693 17.0391C99.5215 16.1992 97.7832 15.4863 95.4785 14.9004C93.1934 14.2949 90.3809 13.9922 87.041 13.9922C83.9746 13.9922 81.1035 14.4707 78.4277 15.4277C75.7715 16.3848 73.4375 17.791 71.4258 19.6465C69.4141 21.4824 67.8418 23.748 66.709 26.4434C65.5762 29.1387 65.0098 32.2148 65.0098 35.6719ZM105.205 35.8477C105.205 39.2266 105.791 42.2637 106.963 44.959C108.135 47.6543 109.727 49.959 111.738 51.873C113.77 53.7676 116.064 55.2129 118.623 56.209C121.201 57.2051 123.887 57.7031 126.68 57.7031C129.922 57.7031 132.861 57.1465 135.498 56.0332C138.135 54.9004 140.391 53.3281 142.266 51.3164C144.16 49.3047 145.615 46.9805 146.631 44.3438C147.646 41.6875 148.154 38.8457 148.154 35.8184C148.154 32.4395 147.568 29.4121 146.396 26.7363C145.225 24.041 143.623 21.7461 141.592 19.8516C139.58 17.9375 137.285 16.4824 134.707 15.4863C132.129 14.4902 129.443 13.9922 126.65 13.9922C123.408 13.9922 120.469 14.5586 117.832 15.6914C115.195 16.8047 112.93 18.3672 111.035 20.3789C109.16 22.3711 107.715 24.6953 106.699 27.3516C105.703 29.9883 105.205 32.8203 105.205 35.8477ZM113.379 35.3789C113.379 31.7656 113.818 28.5137 114.697 25.623C115.576 22.7129 116.973 20.418 118.887 18.7383C120.801 17.0391 123.291 16.1895 126.357 16.1895C128.467 16.1895 130.361 16.6973 132.041 17.7129C133.721 18.7285 135.146 20.1543 136.318 21.9902C137.51 23.8066 138.418 25.9355 139.043 28.377C139.668 30.8184 139.98 33.4551 139.98 36.2871C139.98 39.9004 139.531 43.1621 138.633 46.0723C137.754 48.9824 136.357 51.2871 134.443 52.9863C132.549 54.666 130.068 55.5059 127.002 55.5059C124.893 55.5059 122.998 54.998 121.318 53.9824C119.639 52.9668 118.203 51.541 117.012 49.7051C115.84 47.8691 114.941 45.7305 114.316 43.2891C113.691 40.8477 113.379 38.2109 113.379 35.3789ZM181.67 57L182.168 44.6367H180.732C180.264 46.7461 179.727 48.4648 179.121 49.793C178.516 51.1016 177.754 52.127 176.836 52.8691C175.938 53.5918 174.824 54.1094 173.496 54.4219C172.188 54.7344 170.586 54.9297 168.691 55.0078L163.096 55.2129V20.291C163.096 19.3535 163.203 18.6211 163.418 18.0938C163.633 17.5664 164.082 17.166 164.766 16.8926C165.449 16.6191 166.484 16.4043 167.871 16.248V14.6953H151.348V16.248C152.637 16.4043 153.594 16.6094 154.219 16.8633C154.863 17.0977 155.283 17.459 155.479 17.9473C155.674 18.416 155.771 19.0801 155.771 19.9395V51.7559C155.771 52.6152 155.674 53.2891 155.479 53.7773C155.283 54.2461 154.863 54.5977 154.219 54.832C153.594 55.0664 152.637 55.2715 151.348 55.4473V57H181.67ZM215.713 14.6953H184.6V16.248C185.869 16.4043 186.816 16.6094 187.441 16.8633C188.086 17.0977 188.506 17.459 188.701 17.9473C188.896 18.416 188.994 19.0801 188.994 19.9395V51.7559C188.994 52.6152 188.896 53.2891 188.701 53.7773C188.506 54.2461 188.086 54.5977 187.441 54.832C186.816 55.0664 185.869 55.2715 184.6 55.4473V57H217.119L217.588 45.2812H216.152C215.762 47.2734 215.293 48.8848 214.746 50.1152C214.199 51.3457 213.477 52.293 212.578 52.957C211.68 53.6211 210.518 54.0996 209.092 54.3926C207.666 54.666 205.889 54.8516 203.76 54.9492L196.318 55.2129V36.2285L204.141 36.3457C205.195 36.3652 206.016 36.5508 206.602 36.9023C207.207 37.2539 207.676 37.8594 208.008 38.7188C208.34 39.5586 208.643 40.7402 208.916 42.2637H210.264V28.4062H208.916C208.604 29.9492 208.271 31.1504 207.92 32.0098C207.588 32.8496 207.129 33.4453 206.543 33.7969C205.977 34.1289 205.176 34.3047 204.141 34.3242L196.318 34.4414V16.4824L202.969 16.7168C205.547 16.834 207.598 17.1367 209.121 17.625C210.645 18.1133 211.816 18.9531 212.637 20.1445C213.477 21.3164 214.16 23.0059 214.688 25.2129H216.123L215.713 14.6953Z" fill="white"/>
<path d="M13.3301 14.6953L13.7454 14.4169L13.5969 14.1953H13.3301V14.6953ZM1.55273 14.6953V14.1953H1.05273V14.6953H1.55273ZM1.55273 16.248H1.05273V16.6704L1.46918 16.741L1.55273 16.248ZM5.41992 18.3867L4.94871 18.5539L4.95201 18.5632L4.95568 18.5724L5.41992 18.3867ZM5.74219 20.8184L5.24225 20.8089L5.2422 20.8143L5.74219 20.8184ZM5.50781 49.7637L5.00781 49.7596V49.7637H5.50781ZM5.18555 53.0156L4.70418 52.8799L4.70121 52.8914L5.18555 53.0156ZM3.95508 54.6855L4.18972 55.1272L4.20021 55.1213L3.95508 54.6855ZM1.05469 55.4473L0.988121 54.9517L0.554688 55.0099V55.4473H1.05469ZM1.05469 57H0.554688V57.5H1.05469V57ZM13.0078 57V57.5H13.5078V57H13.0078ZM13.0078 55.4473H13.5078V55.0019L13.0654 54.9506L13.0078 55.4473ZM8.73047 53.0742L8.24836 53.2068L8.24924 53.2099L8.73047 53.0742ZM8.34961 49.7344L7.84967 49.7433L7.84979 49.7479L8.34961 49.7344ZM7.79297 18.5332L8.29289 18.5243L8.28413 18.0332H7.79297V18.5332ZM6.88477 18.5332V18.0332H5.94715L6.46957 18.8118L6.88477 18.5332ZM32.6953 57L32.2801 57.2786L32.4287 57.5H32.6953V57ZM38.6133 57V57.5H39.1091L39.1133 57.0042L38.6133 57ZM38.9062 21.9316L38.4063 21.9247L38.4063 21.9275L38.9062 21.9316ZM40.459 17.0098L40.2195 16.5708L40.2139 16.574L40.459 17.0098ZM43.3594 16.248L43.4195 16.7444L43.8594 16.6911V16.248H43.3594ZM43.3594 14.6953H43.8594V14.1953H43.3594V14.6953ZM31.4355 14.6953V14.1953H30.9355V14.6953H31.4355ZM31.4355 16.248H30.9355V16.6992L31.3843 16.7454L31.4355 16.248ZM34.3945 16.9805L34.1551 17.4194L34.1629 17.4237L34.1709 17.4277L34.3945 16.9805ZM35.6836 18.6504L35.1985 18.7717L35.2003 18.7789L35.2024 18.7861L35.6836 18.6504ZM36.0645 21.9609L36.5644 21.9507L36.5643 21.9474L36.0645 21.9609ZM36.6504 50.584L36.1505 50.5942L36.1605 51.084H36.6504V50.584ZM37.3828 50.584V51.084H38.3198L37.7982 50.3056L37.3828 50.584ZM13.3301 14.1953H1.55273V15.1953H13.3301V14.1953ZM1.05273 14.6953V16.248H2.05273V14.6953H1.05273ZM1.46918 16.741C2.60154 16.9329 3.42177 17.1762 3.96013 17.4541L4.41877 16.5655C3.7462 16.2183 2.80862 15.9538 1.63629 15.7551L1.46918 16.741ZM3.96013 17.4541C4.4602 17.7122 4.7791 18.0759 4.94871 18.5539L5.89114 18.2195C5.63105 17.4866 5.12964 16.9324 4.41877 16.5655L3.96013 17.4541ZM4.95568 18.5724C5.15437 19.0691 5.26125 19.8032 5.24228 20.8089L6.2421 20.8278C6.26218 19.7633 6.15422 18.8762 5.88416 18.201L4.95568 18.5724ZM5.2422 20.8143L5.00783 49.7596L6.0078 49.7677L6.24217 20.8224L5.2422 20.8143ZM5.00781 49.7637C5.00781 51.1537 4.90063 52.1839 4.70432 52.8799L5.66677 53.1514C5.90015 52.3239 6.00781 51.1861 6.00781 49.7637H5.00781ZM4.70121 52.8914C4.53616 53.5351 4.2039 53.9719 3.70995 54.2498L4.20021 55.1213C4.95626 54.6961 5.44431 54.0195 5.66988 53.1398L4.70121 52.8914ZM3.7205 54.244C3.17532 54.5336 2.27973 54.7782 0.988121 54.9517L1.12125 55.9428C2.44683 55.7648 3.48483 55.5015 4.18966 55.1271L3.7205 54.244ZM0.554688 55.4473V57H1.55469V55.4473H0.554688ZM1.05469 57.5H13.0078V56.5H1.05469V57.5ZM13.5078 57V55.4473H12.5078V57H13.5078ZM13.0654 54.9506C11.7348 54.7963 10.8113 54.5603 10.2485 54.2704L9.79055 55.1593C10.5168 55.5335 11.5855 55.7857 12.9502 55.9439L13.0654 54.9506ZM10.2485 54.2704C9.73926 54.008 9.39274 53.5804 9.21169 52.9385L8.24924 53.2099C8.49789 54.0915 9.01074 54.7576 9.79055 55.1593L10.2485 54.2704ZM9.21257 52.9416C9.01363 52.2182 8.88811 51.1521 8.84943 49.7209L7.84979 49.7479C7.88924 51.2073 8.01762 52.3677 8.24837 53.2068L9.21257 52.9416ZM8.84953 49.7255L8.29289 18.5243L7.29305 18.5421L7.84969 49.7433L8.84953 49.7255ZM7.79297 18.0332H6.88477V19.0332H7.79297V18.0332ZM6.46957 18.8118L32.2801 57.2786L33.1105 56.7214L7.29996 18.2546L6.46957 18.8118ZM32.6953 57.5H38.6133V56.5H32.6953V57.5ZM39.1133 57.0042L39.4062 21.9358L38.4063 21.9275L38.1133 56.9958L39.1133 57.0042ZM39.4062 21.9386C39.4255 20.5461 39.5322 19.5085 39.7128 18.8039L38.7442 18.5555C38.5342 19.3743 38.426 20.5047 38.4063 21.9247L39.4062 21.9386ZM39.7128 18.8039C39.8779 18.1602 40.2102 17.7234 40.7041 17.4456L40.2139 16.574C39.4578 16.9993 38.9698 17.6758 38.7442 18.5555L39.7128 18.8039ZM40.6984 17.4487C41.2601 17.1423 42.1526 16.898 43.4195 16.7444L43.2992 15.7517C41.9881 15.9106 40.9469 16.1741 40.2196 16.5708L40.6984 17.4487ZM43.8594 16.248V14.6953H42.8594V16.248H43.8594ZM43.3594 14.1953H31.4355V15.1953H43.3594V14.1953ZM30.9355 14.6953V16.248H31.9355V14.6953H30.9355ZM31.3843 16.7454C32.6916 16.88 33.5986 17.1158 34.1551 17.4194L34.634 16.5415C33.9014 16.142 32.8357 15.8895 31.4867 15.7507L31.3843 16.7454ZM34.1709 17.4277C34.6924 17.6884 35.0352 18.1184 35.1985 18.7717L36.1687 18.5291C35.9413 17.6198 35.4248 16.9366 34.6181 16.5333L34.1709 17.4277ZM35.2024 18.7861C35.4003 19.4879 35.5259 20.5425 35.5646 21.9744L36.5643 21.9474C36.5248 20.4888 36.3966 19.3363 36.1648 18.5147L35.2024 18.7861ZM35.5646 21.9712L36.1505 50.5942L37.1503 50.5738L36.5643 21.9507L35.5646 21.9712ZM36.6504 51.084H37.3828V50.084H36.6504V51.084ZM37.7982 50.3056L13.7454 14.4169L12.9147 14.9737L36.9675 50.8624L37.7982 50.3056ZM57.5391 17.9473L58.0006 18.1396L58.0033 18.133L57.5391 17.9473ZM58.7695 16.8633L58.9451 17.3315L58.9528 17.3285L58.7695 16.8633ZM61.6699 16.248L61.7301 16.7444L62.1699 16.6911V16.248H61.6699ZM61.6699 14.6953H62.1699V14.1953H61.6699V14.6953ZM45.498 14.6953V14.1953H44.998V14.6953H45.498ZM45.498 16.248H44.998V16.6911L45.4379 16.7444L45.498 16.248ZM48.3691 16.8633L48.181 17.3265L48.1895 17.33L48.1983 17.3332L48.3691 16.8633ZM49.6289 17.9473L49.1646 18.133L49.1674 18.1396L49.6289 17.9473ZM49.6289 53.7773L50.0905 53.9697L50.0931 53.963L49.6289 53.7773ZM48.3691 54.832L48.1983 54.3621L48.1936 54.3639L48.3691 54.832ZM45.498 55.4473L45.4305 54.9519L44.998 55.0108V55.4473H45.498ZM45.498 57H44.998V57.5H45.498V57ZM61.6699 57V57.5H62.1699V57H61.6699ZM61.6699 55.4473H62.1699V55.0108L61.7375 54.9519L61.6699 55.4473ZM58.7695 54.832L58.594 55.3002L58.5987 55.3019L58.7695 54.832ZM57.5391 53.7773L57.0748 53.9631L57.0775 53.9697L57.5391 53.7773ZM57.7461 51.7559V19.9395H56.7461V51.7559H57.7461ZM57.7461 19.9395C57.7461 19.1067 57.8424 18.5193 58.0006 18.1396L57.0775 17.755C56.8451 18.3127 56.7461 19.0535 56.7461 19.9395H57.7461ZM58.0033 18.133C58.1331 17.8085 58.4139 17.5306 58.9451 17.3314L58.594 16.3951C57.8751 16.6647 57.3357 17.1094 57.0748 17.7616L58.0033 18.133ZM58.9528 17.3285C59.5371 17.0983 60.4533 16.8992 61.7301 16.7444L61.6098 15.7517C60.3084 15.9094 59.291 16.1205 58.5863 16.3981L58.9528 17.3285ZM62.1699 16.248V14.6953H61.1699V16.248H62.1699ZM61.6699 14.1953H45.498V15.1953H61.6699V14.1953ZM44.998 14.6953V16.248H45.998V14.6953H44.998ZM45.4379 16.7444C46.7156 16.8993 47.6191 17.0983 48.181 17.3265L48.5573 16.4C47.8692 16.1205 46.8586 15.9093 45.5582 15.7517L45.4379 16.7444ZM48.1983 17.3332C48.7521 17.5346 49.0372 17.8142 49.1647 18.133L50.0931 17.7616C49.83 17.1038 49.2752 16.6607 48.54 16.3934L48.1983 17.3332ZM49.1674 18.1396C49.3256 18.5193 49.4219 19.1067 49.4219 19.9395H50.4219C50.4219 19.0535 50.3229 18.3127 50.0904 17.755L49.1674 18.1396ZM49.4219 19.9395V51.7559H50.4219V19.9395H49.4219ZM49.4219 51.7559C49.4219 52.5868 49.3261 53.1881 49.1647 53.5916L50.0931 53.963C50.3224 53.39 50.4219 52.6436 50.4219 51.7559H49.4219ZM49.1674 53.585C49.0428 53.884 48.7594 54.1581 48.1983 54.3621L48.54 55.3019C49.268 55.0372 49.8244 54.6081 50.0904 53.9697L49.1674 53.585ZM48.1936 54.3639C47.6225 54.578 46.7105 54.7773 45.4305 54.9519L45.5656 55.9427C46.8638 55.7657 47.8658 55.5548 48.5447 55.3002L48.1936 54.3639ZM44.998 55.4473V57H45.998V55.4473H44.998ZM45.498 57.5H61.6699V56.5H45.498V57.5ZM62.1699 57V55.4473H61.1699V57H62.1699ZM61.7375 54.9519C60.4583 54.7774 59.5339 54.5779 58.9404 54.3621L58.5987 55.3019C59.2943 55.5549 60.3035 55.7656 61.6024 55.9427L61.7375 54.9519ZM58.9451 54.3639C58.4068 54.162 58.1275 53.8896 58.0006 53.585L57.0775 53.9697C57.3413 54.6026 57.8823 55.0333 58.594 55.3002L58.9451 54.3639ZM58.0033 53.5916C57.8419 53.1881 57.7461 52.5868 57.7461 51.7559H56.7461C56.7461 52.6436 56.8456 53.39 57.0748 53.963L58.0033 53.5916ZM66.709 44.8711L66.2475 45.0636L66.2487 45.0665L66.709 44.8711ZM71.4551 51.8145L71.1104 52.1767L71.1122 52.1783L71.4551 51.8145ZM78.5156 56.209L78.3382 56.6765L78.3412 56.6776L78.5156 56.209ZM92.8711 57.2051L92.7854 56.7124L92.7802 56.7134L92.8711 57.2051ZM97.6465 56.0039L97.8126 56.4756L97.8184 56.4734L97.6465 56.0039ZM100.869 54.3926L101.167 54.7938L101.36 54.6505L101.369 54.4104L100.869 54.3926ZM101.221 44.5488L101.72 44.5667L101.739 44.0488H101.221V44.5488ZM99.7852 44.5488V44.0488H99.385L99.2973 44.4393L99.7852 44.5488ZM98.0273 49.5293L98.4682 49.7652L98.4695 49.7627L98.0273 49.5293ZM95.3613 52.9277L95.0377 52.5466L95.3613 52.9277ZM91.875 54.8906L92.0266 55.3671L92.0331 55.365L91.875 54.8906ZM81.5332 53.9238L81.278 54.3538L81.2801 54.355L81.5332 53.9238ZM76.9922 49.5293L76.5742 49.8036L76.5762 49.8066L76.9922 49.5293ZM74.1504 43.0254L73.6664 43.1511L73.6677 43.1557L74.1504 43.0254ZM79.8047 18.5625L80.0988 18.9669L80.1012 18.9651L79.8047 18.5625ZM91.9043 16.8926L91.7357 17.3634L91.7441 17.3662L91.9043 16.8926ZM99.6387 26.8535L99.1508 26.9631L99.2386 27.3535H99.6387V26.8535ZM101.074 26.8535V27.3535H101.594L101.574 26.8341L101.074 26.8535ZM100.693 17.0391L101.193 17.0197L101.183 16.7752L100.985 16.6327L100.693 17.0391ZM95.4785 14.9004L95.3504 15.3837L95.3553 15.385L95.4785 14.9004ZM78.4277 15.4277L78.2593 14.9569L78.2583 14.9573L78.4277 15.4277ZM71.4258 19.6465L71.7628 20.0158L71.7648 20.014L71.4258 19.6465ZM64.5098 35.6719C64.5098 39.1454 65.0855 42.2787 66.2475 45.0636L67.1704 44.6786C66.0668 42.0338 65.5098 39.0343 65.5098 35.6719H64.5098ZM66.2487 45.0665C67.4261 47.8403 69.0461 50.2126 71.1104 52.1767L71.7997 51.4522C69.8406 49.5882 68.2966 47.3316 67.1692 44.6757L66.2487 45.0665ZM71.1122 52.1783C73.1925 54.1386 75.6026 55.6381 78.3382 56.6764L78.6931 55.7415C76.0771 54.7486 73.7802 53.3184 71.798 51.4506L71.1122 52.1783ZM78.3412 56.6776C81.0771 57.6961 84.0175 58.2031 87.1582 58.2031V57.2031C84.127 57.2031 81.3057 56.7141 78.6901 55.7404L78.3412 56.6776ZM87.1582 58.2031C89.1974 58.2031 91.1323 58.0348 92.9619 57.6968L92.7802 56.7134C91.0162 57.0394 89.1425 57.2031 87.1582 57.2031V58.2031ZM92.9568 57.6977C94.7748 57.3815 96.3943 56.9749 97.8125 56.4755L97.4804 55.5323C96.1252 56.0095 94.5612 56.4036 92.7854 56.7125L92.9568 57.6977ZM97.8184 56.4734C99.2282 55.9572 100.352 55.4002 101.167 54.7938L100.571 53.9913C99.8629 54.5177 98.8382 55.035 97.4746 55.5344L97.8184 56.4734ZM101.369 54.4104L101.72 44.5667L100.721 44.531L100.369 54.3747L101.369 54.4104ZM101.221 44.0488H99.7852V45.0488H101.221V44.0488ZM99.2973 44.4393C98.8751 46.3199 98.3026 47.9366 97.5852 49.2959L98.4695 49.7627C99.2365 48.3095 99.8358 46.6059 100.273 44.6583L99.2973 44.4393ZM97.5865 49.2934C96.8693 50.6334 96.0181 51.7142 95.0377 52.5466L95.6849 53.3089C96.7749 52.3835 97.701 51.1986 98.4682 49.7652L97.5865 49.2934ZM95.0377 52.5466C94.0513 53.3841 92.9454 54.0068 91.7169 54.4163L92.0331 55.365C93.3828 54.9151 94.6011 54.2292 95.6849 53.3089L95.0377 52.5466ZM91.7234 54.4142C90.4897 54.8067 89.1256 55.0059 87.627 55.0059V56.0059C89.2143 56.0059 90.6822 55.7949 92.0266 55.3671L91.7234 54.4142ZM87.627 55.0059C85.4423 55.0059 83.4998 54.4984 81.7863 53.4926L81.2801 54.355C83.1604 55.4587 85.2804 56.0059 87.627 56.0059V55.0059ZM81.7884 53.4938C80.081 52.4807 78.6205 51.0704 77.4082 49.2519L76.5762 49.8066C77.8639 51.7382 79.4307 53.2576 81.278 54.3538L81.7884 53.4938ZM77.4102 49.255C76.2125 47.4298 75.2852 45.3118 74.6331 42.8951L73.6677 43.1557C74.3437 45.6609 75.311 47.8787 76.5742 49.8036L77.4102 49.255ZM74.6343 42.8996C74.0014 40.464 73.6836 37.8601 73.6836 35.0859H72.6836C72.6836 37.9368 73.0103 40.6258 73.6665 43.1511L74.6343 42.8996ZM73.6836 35.0859C73.6836 31.3456 74.2428 28.1006 75.3471 25.34L74.4186 24.9686C73.2572 27.8721 72.6836 31.2482 72.6836 35.0859H73.6836ZM75.3471 25.34C76.4502 22.5822 78.0373 20.4661 80.0988 18.9669L79.5106 18.1581C77.2752 19.7839 75.5811 22.0624 74.4186 24.9686L75.3471 25.34ZM80.1012 18.9651C82.1535 17.4539 84.6148 16.6895 87.5098 16.6895V15.6895C84.4282 15.6895 81.7528 16.5071 79.5082 18.1599L80.1012 18.9651ZM87.5098 16.6895C89.0828 16.6895 90.4894 16.9168 91.7357 17.3633L92.0729 16.4219C90.702 15.9308 89.179 15.6895 87.5098 15.6895V16.6895ZM91.7441 17.3662C93.0113 17.7948 94.1246 18.4357 95.0886 19.2886L95.7512 18.5396C94.684 17.5955 93.4535 16.8887 92.0645 16.4189L91.7441 17.3662ZM95.0886 19.2886C96.0546 20.1431 96.8781 21.2071 97.5562 22.4879L98.4399 22.02C97.7117 20.6445 96.8165 19.4819 95.7512 18.5396L95.0886 19.2886ZM97.5562 22.4879C98.2351 23.7703 98.7682 25.2604 99.1508 26.9631L100.127 26.7439C99.7279 24.9701 99.1672 23.3938 98.4399 22.02L97.5562 22.4879ZM99.6387 27.3535H101.074V26.3535H99.6387V27.3535ZM101.574 26.8341L101.193 17.0197L100.194 17.0585L100.575 26.8729L101.574 26.8341ZM100.985 16.6327C99.7397 15.7405 97.9327 15.0084 95.6017 14.4158L95.3553 15.385C97.6337 15.9642 99.3032 16.6579 100.402 17.4455L100.985 16.6327ZM95.6066 14.4171C93.2664 13.797 90.4078 13.4922 87.041 13.4922V14.4922C90.3539 14.4922 93.1203 14.7928 95.3505 15.3837L95.6066 14.4171ZM87.041 13.4922C83.9218 13.4922 80.9933 13.9791 78.2593 14.9569L78.5961 15.8985C81.2137 14.9623 84.0275 14.4922 87.041 14.4922V13.4922ZM78.2583 14.9573C75.5412 15.9363 73.1491 17.3768 71.0868 19.2789L71.7648 20.014C73.7259 18.2053 76.0017 16.8333 78.5972 15.8981L78.2583 14.9573ZM71.0887 19.2772C69.0196 21.1655 67.4068 23.4925 66.248 26.2496L67.1699 26.6371C68.2768 24.0036 69.8085 21.7994 71.7628 20.0158L71.0887 19.2772ZM66.248 26.2496C65.0852 29.0164 64.5098 32.1602 64.5098 35.6719H65.5098C65.5098 32.2694 66.0671 29.2609 67.1699 26.6371L66.248 26.2496ZM111.738 51.873L111.394 52.2353L111.397 52.2387L111.738 51.873ZM118.623 56.209L118.442 56.6749L118.443 56.6754L118.623 56.209ZM135.498 56.0332L135.693 56.4938L135.695 56.4926L135.498 56.0332ZM142.266 51.3164L141.902 50.9736L141.9 50.9755L142.266 51.3164ZM146.631 44.3438L147.097 44.5235L147.098 44.5223L146.631 44.3438ZM146.396 26.7363L145.938 26.9357L145.938 26.9369L146.396 26.7363ZM141.592 19.8516L141.247 20.2138L141.251 20.2172L141.592 19.8516ZM117.832 15.6914L118.027 16.152L118.029 16.1508L117.832 15.6914ZM111.035 20.3789L110.671 20.0361L110.671 20.0362L111.035 20.3789ZM106.699 27.3516L106.232 27.173L106.231 27.1749L106.699 27.3516ZM114.697 25.623L115.176 25.7685L115.176 25.7676L114.697 25.623ZM118.887 18.7383L119.217 19.1141L119.219 19.1122L118.887 18.7383ZM132.041 17.7129L132.3 17.285L132.041 17.7129ZM136.318 21.9902L135.897 22.2593L135.9 22.2645L136.318 21.9902ZM138.633 46.0723L138.155 45.9248L138.154 45.9277L138.633 46.0723ZM134.443 52.9863L134.775 53.3605L134.775 53.3602L134.443 52.9863ZM117.012 49.7051L116.59 49.9741L116.592 49.9773L117.012 49.7051ZM104.705 35.8477C104.705 39.285 105.301 42.3914 106.504 45.1583L107.421 44.7596C106.281 42.1359 105.705 39.1682 105.705 35.8477H104.705ZM106.504 45.1583C107.701 47.9114 109.331 50.2724 111.394 52.2353L112.083 51.5108C110.122 49.6455 108.568 47.3972 107.421 44.7596L106.504 45.1583ZM111.397 52.2387C113.474 54.176 115.823 55.6555 118.442 56.6749L118.804 55.743C116.306 54.7702 114.065 53.3592 112.079 51.5074L111.397 52.2387ZM118.443 56.6754C121.079 57.6939 123.826 58.2031 126.68 58.2031V57.2031C123.948 57.2031 121.323 56.7162 118.803 55.7426L118.443 56.6754ZM126.68 58.2031C129.98 58.2031 132.987 57.6363 135.693 56.4938L135.304 55.5726C132.736 56.6566 129.864 57.2031 126.68 57.2031V58.2031ZM135.695 56.4926C138.393 55.3336 140.707 53.722 142.631 51.6573L141.9 50.9755C140.074 52.9343 137.876 54.4672 135.301 55.5738L135.695 56.4926ZM142.63 51.6592C144.57 49.5992 146.059 47.2193 147.097 44.5235L146.164 44.164C145.171 46.7416 143.751 49.0102 141.902 50.9736L142.63 51.6592ZM147.098 44.5223C148.137 41.8055 148.654 38.9028 148.654 35.8184H147.654C147.654 38.7886 147.156 41.5695 146.164 44.1652L147.098 44.5223ZM148.654 35.8184C148.654 32.3811 148.058 29.2839 146.854 26.5357L145.938 26.9369C147.079 29.5403 147.654 32.4978 147.654 35.8184H148.654ZM146.855 26.537C145.657 23.7825 144.017 21.4299 141.933 19.4859L141.251 20.2172C143.229 22.0623 144.792 24.2996 145.938 26.9357L146.855 26.537ZM141.936 19.4893C139.877 17.5303 137.527 16.0397 134.887 15.0199L134.527 15.9527C137.044 16.9251 139.283 18.3447 141.247 20.2138L141.936 19.4893ZM134.887 15.0199C132.251 14.0014 129.504 13.4922 126.65 13.4922V14.4922C129.382 14.4922 132.007 14.9791 134.527 15.9527L134.887 15.0199ZM126.65 13.4922C123.349 13.4922 120.341 14.0691 117.635 15.232L118.029 16.1508C120.596 15.048 123.467 14.4922 126.65 14.4922V13.4922ZM117.638 15.2308C114.939 16.3701 112.615 17.9719 110.671 20.0361L111.399 20.7217C113.244 18.7624 115.452 17.2392 118.027 16.152L117.638 15.2308ZM110.671 20.0362C108.75 22.0778 107.27 24.4583 106.232 27.173L107.166 27.5301C108.16 24.9323 109.571 22.6644 111.399 20.7216L110.671 20.0362ZM106.231 27.1749C105.213 29.8721 104.705 32.7644 104.705 35.8477H105.705C105.705 32.8762 106.194 30.1045 107.167 27.5283L106.231 27.1749ZM113.879 35.3789C113.879 31.8056 114.314 28.6038 115.176 25.7685L114.219 25.4776C113.323 28.4235 112.879 31.7257 112.879 35.3789H113.879ZM115.176 25.7676C116.033 22.9294 117.385 20.7211 119.217 19.1141L118.557 18.3625C116.56 20.1149 115.119 22.4964 114.219 25.4785L115.176 25.7676ZM119.219 19.1122C121.024 17.5097 123.388 16.6895 126.357 16.6895V15.6895C123.194 15.6895 120.578 16.5685 118.555 18.3644L119.219 19.1122ZM126.357 16.6895C128.383 16.6895 130.186 17.1758 131.782 18.1408L132.3 17.285C130.536 16.2187 128.551 15.6895 126.357 15.6895V16.6895ZM131.782 18.1408C133.389 19.1124 134.762 20.4809 135.897 22.2593L136.74 21.7212C135.531 19.8277 134.052 18.3446 132.3 17.285L131.782 18.1408ZM135.9 22.2645C137.057 24.0281 137.945 26.1046 138.559 28.501L139.527 28.253C138.891 25.7665 137.962 23.5852 136.736 21.716L135.9 22.2645ZM138.559 28.501C139.172 30.8972 139.48 33.4918 139.48 36.2871H140.48C140.48 33.4183 140.164 30.7395 139.527 28.253L138.559 28.501ZM139.48 36.2871C139.48 39.8594 139.036 43.0703 138.155 45.9248L139.111 46.2198C140.026 43.2539 140.48 39.9414 140.48 36.2871H139.48ZM138.154 45.9277C137.297 48.7661 135.944 50.9853 134.111 52.6124L134.775 53.3602C136.771 51.5889 138.211 49.1987 139.111 46.2168L138.154 45.9277ZM134.112 52.6122C132.327 54.1945 129.973 55.0059 127.002 55.0059V56.0059C130.164 56.0059 132.771 55.1375 134.775 53.3605L134.112 52.6122ZM127.002 55.0059C124.977 55.0059 123.173 54.5195 121.577 53.5546L121.06 54.4103C122.823 55.4766 124.808 56.0059 127.002 56.0059V55.0059ZM121.577 53.5546C119.969 52.5823 118.586 51.2128 117.431 49.4329L116.592 49.9773C117.82 51.8692 119.308 53.3513 121.06 54.4103L121.577 53.5546ZM117.433 49.4361C116.294 47.6512 115.415 45.563 114.801 43.1651L113.832 43.4131C114.468 45.8979 115.386 48.0871 116.59 49.9741L117.433 49.4361ZM114.801 43.1651C114.187 40.7688 113.879 38.1742 113.879 35.3789H112.879C112.879 38.2477 113.195 40.9265 113.832 43.4131L114.801 43.1651ZM181.67 57V57.5H182.15L182.17 57.0201L181.67 57ZM182.168 44.6367L182.668 44.6568L182.689 44.1367H182.168V44.6367ZM180.732 44.6367V44.1367H180.331L180.244 44.5283L180.732 44.6367ZM179.121 49.793L179.575 50.0029L179.576 50.0004L179.121 49.793ZM176.836 52.8691L177.149 53.2587L177.15 53.258L176.836 52.8691ZM173.496 54.4219L173.382 53.9352L173.38 53.9355L173.496 54.4219ZM168.691 55.0078L168.71 55.5075L168.712 55.5074L168.691 55.0078ZM163.096 55.2129H162.596V55.7316L163.114 55.7126L163.096 55.2129ZM164.766 16.8926L164.58 16.4283L164.766 16.8926ZM167.871 16.248L167.927 16.7449L168.371 16.6949V16.248H167.871ZM167.871 14.6953H168.371V14.1953H167.871V14.6953ZM151.348 14.6953V14.1953H150.848V14.6953H151.348ZM151.348 16.248H150.848V16.6911L151.287 16.7444L151.348 16.248ZM154.219 16.8633L154.031 17.3265L154.039 17.33L154.048 17.3332L154.219 16.8633ZM155.479 17.9473L155.014 18.133L155.017 18.1396L155.479 17.9473ZM155.479 53.7773L155.94 53.9697L155.943 53.963L155.479 53.7773ZM154.219 54.832L154.048 54.3621L154.043 54.3639L154.219 54.832ZM151.348 55.4473L151.28 54.9519L150.848 55.0108V55.4473H151.348ZM151.348 57H150.848V57.5H151.348V57ZM182.17 57.0201L182.668 44.6568L181.668 44.6166L181.17 56.9799L182.17 57.0201ZM182.168 44.1367H180.732V45.1367H182.168V44.1367ZM180.244 44.5283C179.78 46.6182 179.252 48.3004 178.666 49.5856L179.576 50.0004C180.201 48.6293 180.747 46.874 181.221 44.7452L180.244 44.5283ZM178.667 49.583C178.087 50.8372 177.368 51.7958 176.522 52.4803L177.15 53.258C178.14 52.4581 178.944 51.3659 179.575 50.0029L178.667 49.583ZM176.523 52.4795C175.692 53.1476 174.65 53.6367 173.382 53.9352L173.611 54.9086C174.998 54.5821 176.183 54.036 177.149 53.2587L176.523 52.4795ZM173.38 53.9355C172.113 54.2382 170.545 54.4309 168.671 54.5082L168.712 55.5074C170.627 55.4284 172.262 55.2305 173.612 54.9082L173.38 53.9355ZM168.673 54.5081L163.077 54.7132L163.114 55.7126L168.71 55.5075L168.673 54.5081ZM163.596 55.2129V20.291H162.596V55.2129H163.596ZM163.596 20.291C163.596 19.3818 163.701 18.7234 163.881 18.2824L162.955 17.9051C162.705 18.5187 162.596 19.3253 162.596 20.291H163.596ZM163.881 18.2824C164.031 17.9148 164.355 17.5954 164.951 17.3568L164.58 16.4283C163.809 16.7367 163.235 17.218 162.955 17.9051L163.881 18.2824ZM164.951 17.3568C165.571 17.1088 166.553 16.8998 167.927 16.7449L167.815 15.7512C166.416 15.9088 165.327 16.1295 164.58 16.4283L164.951 17.3568ZM168.371 16.248V14.6953H167.371V16.248H168.371ZM167.871 14.1953H151.348V15.1953H167.871V14.1953ZM150.848 14.6953V16.248H151.848V14.6953H150.848ZM151.287 16.7444C152.565 16.8993 153.469 17.0983 154.031 17.3265L154.407 16.4C153.719 16.1205 152.708 15.9093 151.408 15.7517L151.287 16.7444ZM154.048 17.3332C154.602 17.5346 154.887 17.8142 155.014 18.133L155.943 17.7616C155.68 17.1038 155.125 16.6607 154.39 16.3934L154.048 17.3332ZM155.017 18.1396C155.175 18.5193 155.271 19.1067 155.271 19.9395H156.271C156.271 19.0535 156.172 18.3127 155.94 17.755L155.017 18.1396ZM155.271 19.9395V51.7559H156.271V19.9395H155.271ZM155.271 51.7559C155.271 52.5868 155.176 53.1881 155.014 53.5916L155.943 53.963C156.172 53.39 156.271 52.6436 156.271 51.7559H155.271ZM155.017 53.585C154.892 53.884 154.609 54.1581 154.048 54.3621L154.39 55.3019C155.118 55.0372 155.674 54.6081 155.94 53.9697L155.017 53.585ZM154.043 54.3639C153.472 54.578 152.56 54.7773 151.28 54.9519L151.415 55.9427C152.713 55.7657 153.715 55.5548 154.394 55.3002L154.043 54.3639ZM150.848 55.4473V57H151.848V55.4473H150.848ZM151.348 57.5H181.67V56.5H151.348V57.5ZM215.713 14.6953L216.213 14.6758L216.194 14.1953H215.713V14.6953ZM184.6 14.6953V14.1953H184.1V14.6953H184.6ZM184.6 16.248H184.1V16.6903L184.539 16.7443L184.6 16.248ZM187.441 16.8633L187.253 17.3265L187.262 17.33L187.271 17.3332L187.441 16.8633ZM188.701 17.9473L188.237 18.133L188.24 18.1396L188.701 17.9473ZM188.701 53.7773L189.163 53.9697L189.165 53.963L188.701 53.7773ZM187.441 54.832L187.271 54.3621L187.266 54.3639L187.441 54.832ZM184.6 55.4473L184.531 54.952L184.1 55.0117V55.4473H184.6ZM184.6 57H184.1V57.5H184.6V57ZM217.119 57V57.5H217.6L217.619 57.02L217.119 57ZM217.588 45.2812L218.087 45.3012L218.108 44.7812H217.588V45.2812ZM216.152 45.2812V44.7812H215.741L215.662 45.185L216.152 45.2812ZM214.746 50.1152L215.203 50.3183L214.746 50.1152ZM212.578 52.957L212.281 52.5549L212.578 52.957ZM209.092 54.3926L209.186 54.8837L209.192 54.8823L209.092 54.3926ZM203.76 54.9492L203.777 55.4489L203.783 55.4487L203.76 54.9492ZM196.318 55.2129H195.818V55.7309L196.336 55.7126L196.318 55.2129ZM196.318 36.2285L196.326 35.7286L195.818 35.721V36.2285H196.318ZM204.141 36.3457L204.15 35.8458L204.148 35.8458L204.141 36.3457ZM206.602 36.9023L206.344 37.3311L206.35 37.3347L206.602 36.9023ZM208.008 38.7188L207.541 38.899L207.543 38.9026L208.008 38.7188ZM208.916 42.2637L208.424 42.352L208.498 42.7637H208.916V42.2637ZM210.264 42.2637V42.7637H210.764V42.2637H210.264ZM210.264 28.4062H210.764V27.9062H210.264V28.4062ZM208.916 28.4062V27.9062H208.507L208.426 28.307L208.916 28.4062ZM207.92 32.0098L207.457 31.8204L207.455 31.8259L207.92 32.0098ZM206.543 33.7969L206.796 34.2282L206.8 34.2256L206.543 33.7969ZM204.141 34.3242L204.148 34.8242L204.15 34.8241L204.141 34.3242ZM196.318 34.4414H195.818V34.949L196.326 34.9414L196.318 34.4414ZM196.318 16.4824L196.336 15.9827L195.818 15.9645V16.4824H196.318ZM202.969 16.7168L202.991 16.2173L202.986 16.2171L202.969 16.7168ZM212.637 20.1445L212.225 20.4281L212.23 20.4358L212.637 20.1445ZM214.688 25.2129L214.201 25.3291L214.293 25.7129H214.688V25.2129ZM216.123 25.2129V25.7129H216.643L216.623 25.1934L216.123 25.2129ZM215.713 14.1953H184.6V15.1953H215.713V14.1953ZM184.1 14.6953V16.248H185.1V14.6953H184.1ZM184.539 16.7443C185.796 16.8991 186.691 17.0979 187.253 17.3265L187.63 16.4C186.942 16.1208 185.942 15.9095 184.661 15.7518L184.539 16.7443ZM187.271 17.3332C187.824 17.5346 188.109 17.8142 188.237 18.133L189.165 17.7616C188.902 17.1038 188.347 16.6607 187.612 16.3934L187.271 17.3332ZM188.24 18.1396C188.398 18.5193 188.494 19.1067 188.494 19.9395H189.494C189.494 19.0535 189.395 18.3127 189.163 17.755L188.24 18.1396ZM188.494 19.9395V51.7559H189.494V19.9395H188.494ZM188.494 51.7559C188.494 52.5868 188.398 53.1881 188.237 53.5916L189.165 53.963C189.395 53.39 189.494 52.6436 189.494 51.7559H188.494ZM188.24 53.585C188.115 53.884 187.832 54.1581 187.271 54.3621L187.612 55.3019C188.34 55.0372 188.897 54.6081 189.163 53.9697L188.24 53.585ZM187.266 54.3639C186.694 54.5783 185.791 54.7775 184.531 54.952L184.668 55.9425C185.947 55.7654 186.939 55.5545 187.617 55.3002L187.266 54.3639ZM184.1 55.4473V57H185.1V55.4473H184.1ZM184.6 57.5H217.119V56.5H184.6V57.5ZM217.619 57.02L218.087 45.3012L217.088 45.2613L216.62 56.98L217.619 57.02ZM217.588 44.7812H216.152V45.7812H217.588V44.7812ZM215.662 45.185C215.275 47.157 214.815 48.7285 214.289 49.9122L215.203 50.3183C215.771 49.041 216.248 47.3899 216.643 45.3775L215.662 45.185ZM214.289 49.9122C213.77 51.0798 213.097 51.9519 212.281 52.5549L212.875 53.3591C213.856 52.6341 214.628 51.6116 215.203 50.3183L214.289 49.9122ZM212.281 52.5549C211.456 53.1649 210.366 53.6202 208.991 53.9028L209.192 54.8823C210.669 54.579 211.904 54.0773 212.875 53.3591L212.281 52.5549ZM208.998 53.9015C207.603 54.1689 205.852 54.3527 203.737 54.4497L203.783 55.4487C205.926 55.3504 207.729 55.1631 209.186 54.8836L208.998 53.9015ZM203.742 54.4495L196.301 54.7132L196.336 55.7126L203.777 55.4489L203.742 54.4495ZM196.818 55.2129V36.2285H195.818V55.2129H196.818ZM196.311 36.7285L204.133 36.8456L204.148 35.8458L196.326 35.7286L196.311 36.7285ZM204.131 36.8456C205.142 36.8643 205.864 37.0426 206.344 37.3311L206.859 36.4736C206.168 36.059 205.249 35.8661 204.15 35.8458L204.131 36.8456ZM206.35 37.3347C206.83 37.6133 207.237 38.112 207.541 38.8989L208.474 38.5386C208.114 37.6068 207.584 36.8945 206.853 36.4699L206.35 37.3347ZM207.543 38.9026C207.857 39.6974 208.153 40.8416 208.424 42.352L209.408 42.1753C209.132 40.6388 208.823 39.4198 208.473 38.5349L207.543 38.9026ZM208.916 42.7637H210.264V41.7637H208.916V42.7637ZM210.764 42.2637V28.4062H209.764V42.2637H210.764ZM210.264 27.9062H208.916V28.9062H210.264V27.9062ZM208.426 28.307C208.116 29.8372 207.791 31.0033 207.457 31.8204L208.383 32.1991C208.752 31.2974 209.091 30.0612 209.406 28.5055L208.426 28.307ZM207.455 31.8259C207.15 32.5964 206.751 33.089 206.286 33.3681L206.8 34.2256C207.507 33.8017 208.025 33.1029 208.385 32.1936L207.455 31.8259ZM206.29 33.3655C205.828 33.6361 205.125 33.8055 204.131 33.8243L204.15 34.8241C205.226 34.8038 206.125 34.6217 206.796 34.2282L206.29 33.3655ZM204.133 33.8243L196.311 33.9415L196.326 34.9414L204.148 34.8242L204.133 33.8243ZM196.818 34.4414V16.4824H195.818V34.4414H196.818ZM196.301 16.9821L202.951 17.2165L202.986 16.2171L196.336 15.9827L196.301 16.9821ZM202.946 17.2163C205.503 17.3325 207.505 17.632 208.968 18.1011L209.274 17.1489C207.691 16.6414 205.59 16.3354 202.991 16.2173L202.946 17.2163ZM208.968 18.1011C210.398 18.5594 211.474 19.3375 212.225 20.4281L213.049 19.861C212.159 18.5688 210.891 17.6671 209.274 17.1489L208.968 18.1011ZM212.23 20.4358C213.017 21.5336 213.681 23.153 214.201 25.3291L215.174 25.0967C214.639 22.8588 213.936 21.0992 213.043 19.8533L212.23 20.4358ZM214.688 25.7129H216.123V24.7129H214.688V25.7129ZM216.623 25.1934L216.213 14.6758L215.213 14.7148L215.623 25.2324L216.623 25.1934Z" fill="white"/>
<path d="M27.2949 77.8477H20.9814V78.8584C21.626 78.9463 22.1094 79.0635 22.4316 79.21C22.7637 79.3564 22.9785 79.5713 23.0762 79.8545C23.1836 80.1377 23.2324 80.5381 23.2227 81.0557L22.8125 95.6455C22.793 96.2119 22.7295 96.6514 22.6221 96.9639C22.5146 97.2764 22.2998 97.5059 21.9775 97.6523C21.6553 97.7891 21.1523 97.9014 20.4688 97.9893V99H26.8408V97.9746C26.1475 97.8965 25.6348 97.7842 25.3027 97.6377C24.9805 97.4912 24.7705 97.2617 24.6729 96.9492C24.5752 96.6367 24.5264 96.1826 24.5264 95.5869L24.585 79.4004H24.1309L31.6455 99H33.4766L35.293 94.0049L40.6543 79.4883H40.1855L40.5811 96.2021C40.6006 96.6318 40.5615 96.9639 40.4639 97.1982C40.3662 97.4229 40.1514 97.5938 39.8193 97.7109C39.4971 97.8184 38.999 97.9111 38.3252 97.9893V99H46.6602V97.9893C45.9668 97.9111 45.4492 97.8135 45.1074 97.6963C44.7754 97.5791 44.5557 97.4033 44.4482 97.1689C44.3506 96.9346 44.292 96.5977 44.2725 96.1582L43.877 80.6895C43.8672 80.2598 43.9111 79.9277 44.0088 79.6934C44.1162 79.459 44.3408 79.2832 44.6826 79.166C45.0244 79.0391 45.5371 78.9365 46.2207 78.8584V77.8477H39.6875L33.623 95.5723H33.9746L27.2949 77.8477ZM54.1162 96.1582V80.6895C54.1162 80.2598 54.165 79.9277 54.2627 79.6934C54.3701 79.459 54.5947 79.2832 54.9365 79.166C55.2783 79.0391 55.8008 78.9365 56.5039 78.8584V77.8477H48.0371V78.8584C48.7402 78.9365 49.2627 79.0391 49.6045 79.166C49.9463 79.2832 50.166 79.459 50.2637 79.6934C50.3711 79.9277 50.4248 80.2598 50.4248 80.6895V96.1582C50.4248 96.5879 50.3711 96.9199 50.2637 97.1543C50.166 97.3887 49.9463 97.5645 49.6045 97.6816C49.2627 97.7988 48.7402 97.9014 48.0371 97.9893V99H56.5039V97.9893C55.8008 97.9014 55.2783 97.7988 54.9365 97.6816C54.5947 97.5645 54.3701 97.3887 54.2627 97.1543C54.165 96.9199 54.1162 96.5879 54.1162 96.1582ZM65.4541 99.4102C66.9092 99.4102 68.2178 99.1514 69.3799 98.6338C70.5518 98.1162 71.4795 97.3887 72.1631 96.4512C72.8564 95.5137 73.2031 94.4199 73.2031 93.1699C73.2031 91.6367 72.7539 90.3623 71.8555 89.3467C70.9668 88.3311 69.5898 87.501 67.7246 86.8564L66.2598 86.373C64.8926 85.8945 63.8525 85.3525 63.1396 84.7471C62.4365 84.1318 62.085 83.3115 62.085 82.2861C62.085 81.2705 62.4463 80.4502 63.1689 79.8252C63.8916 79.2002 64.9365 78.8877 66.3037 78.8877C67.1631 78.8877 67.9346 79.0586 68.6182 79.4004C69.3018 79.7422 69.8779 80.2695 70.3467 80.9824C70.8252 81.6855 71.167 82.5693 71.3721 83.6338H72.3242L72.1631 79.0049C71.5869 78.5752 70.7959 78.209 69.79 77.9062C68.7842 77.5938 67.6514 77.4375 66.3916 77.4375C64.8291 77.4375 63.4766 77.6816 62.334 78.1699C61.2012 78.6582 60.3223 79.3516 59.6973 80.25C59.082 81.1387 58.7744 82.1836 58.7744 83.3848C58.7744 84.8496 59.2432 86.0801 60.1807 87.0762C61.1182 88.0723 62.4854 88.8828 64.2822 89.5078L65.7471 89.9912C67.1729 90.4893 68.2178 91.0752 68.8818 91.749C69.5557 92.4229 69.8926 93.2822 69.8926 94.3271C69.8926 95.4014 69.4971 96.2754 68.7061 96.9492C67.915 97.623 66.8506 97.96 65.5127 97.96C64.7998 97.96 64.1211 97.8574 63.4766 97.6523C62.832 97.4375 62.2461 97.1201 61.7188 96.7002C61.1914 96.2803 60.7373 95.7529 60.3564 95.1182C59.9756 94.4736 59.6875 93.7217 59.4922 92.8623H58.5547L58.7305 97.6377C59.3945 98.1357 60.3174 98.5557 61.499 98.8975C62.6807 99.2393 63.999 99.4102 65.4541 99.4102ZM89.3164 77.833H87.5732C86.8311 78.292 86.0352 78.751 85.1855 79.21C84.3359 79.6689 83.4521 80.1182 82.5342 80.5576V81.4512L85.918 80.5137V95.8359C85.918 96.3145 85.835 96.6953 85.6689 96.9785C85.5127 97.252 85.2051 97.4619 84.7461 97.6084C84.2871 97.7549 83.6133 97.8818 82.7246 97.9893V99H92.5244V97.9893C91.626 97.8818 90.9473 97.7549 90.4883 97.6084C90.0293 97.4619 89.7168 97.252 89.5508 96.9785C89.3848 96.6953 89.3018 96.3145 89.3018 95.8359L89.3164 77.833ZM100.61 99.4102C101.899 99.4102 103.11 99.1123 104.243 98.5166C105.386 97.9209 106.313 97.0859 107.026 96.0117C107.739 94.9277 108.096 93.6533 108.096 92.1885C108.096 90.8408 107.793 89.6836 107.188 88.7168C106.592 87.75 105.801 87.0078 104.814 86.4902C103.838 85.9629 102.773 85.6992 101.621 85.6992C100.791 85.6992 100.034 85.8115 99.3506 86.0361C98.667 86.2607 98.0762 86.5537 97.5781 86.915C97.0898 87.2764 96.7139 87.6621 96.4502 88.0723L96.5674 88.4531L98.2227 80.7334H107.1L107.246 77.8477H97.2705L95.2051 89.6543L96.3477 89.6836C96.6406 89.2051 97.1094 88.7705 97.7539 88.3799C98.3984 87.9893 99.165 87.7939 100.054 87.7939C100.884 87.7939 101.636 88.0039 102.31 88.4238C102.983 88.8438 103.521 89.4297 103.921 90.1816C104.321 90.9238 104.521 91.7832 104.521 92.7598C104.521 93.834 104.312 94.7471 103.892 95.499C103.472 96.2412 102.915 96.8076 102.222 97.1982C101.528 97.5889 100.767 97.7842 99.9365 97.7842C99.1748 97.7842 98.4863 97.6621 97.8711 97.418C97.2656 97.1641 96.7773 96.8125 96.4062 96.3633C96.0449 95.9141 95.8447 95.3867 95.8057 94.7812H94.4287C94.4287 95.5527 94.6826 96.2949 95.1904 97.0078C95.6982 97.7109 96.416 98.2871 97.3438 98.7363C98.2715 99.1855 99.3604 99.4102 100.61 99.4102ZM96.2012 92.8477C95.7031 92.8477 95.2832 93.0332 94.9414 93.4043C94.5996 93.7656 94.4287 94.2246 94.4287 94.7812H94.6924C94.6924 95.2207 94.8486 95.582 95.1611 95.8652C95.4834 96.1484 95.8643 96.29 96.3037 96.29C96.7627 96.29 97.1533 96.124 97.4756 95.792C97.8076 95.46 97.9736 95.0596 97.9736 94.5908C97.9736 94.0928 97.8027 93.6777 97.4609 93.3457C97.1191 93.0137 96.6992 92.8477 96.2012 92.8477ZM134.419 95.0889L128.135 77.8477H125.469L119.243 94.8398C118.931 95.6699 118.652 96.2998 118.408 96.7295C118.164 97.1494 117.871 97.4473 117.529 97.623C117.188 97.7891 116.714 97.9111 116.108 97.9893V99H122.686V97.9893C121.934 97.8818 121.387 97.7402 121.045 97.5645C120.703 97.3789 120.532 97.0811 120.532 96.6709C120.542 96.2607 120.674 95.6699 120.928 94.8984L125.879 80.4404H125.425L130.508 95.0449C130.762 95.7676 130.884 96.3242 130.874 96.7148C130.864 97.1055 130.688 97.3936 130.347 97.5791C130.015 97.7549 129.478 97.8916 128.735 97.9893V99H137.422V97.9893C136.846 97.9111 136.387 97.7939 136.045 97.6377C135.713 97.4717 135.425 97.1934 135.181 96.8027C134.946 96.4121 134.692 95.8408 134.419 95.0889ZM121.323 91.7197H130.977L130.493 90.4307H121.792L121.323 91.7197ZM144.087 77.8477H137.964V78.8584C138.618 78.9561 139.106 79.0781 139.429 79.2246C139.751 79.3711 139.966 79.5859 140.073 79.8691C140.181 80.1523 140.229 80.5527 140.22 81.0703L140.132 95.6016C140.132 96.1875 140.078 96.6367 139.971 96.9492C139.873 97.2617 139.663 97.4912 139.341 97.6377C139.019 97.7744 138.516 97.8916 137.832 97.9893V99H144.307V97.9746C143.594 97.9062 143.066 97.8037 142.725 97.667C142.383 97.5205 142.158 97.291 142.051 96.9785C141.943 96.6562 141.885 96.1924 141.875 95.5869L141.567 80.0596H141.055L153.608 99H157.095L157.227 81.2461C157.227 80.6602 157.275 80.2109 157.373 79.8984C157.48 79.5859 157.695 79.3613 158.018 79.2246C158.34 79.0781 158.848 78.9561 159.541 78.8584V77.8477H153.066V78.873C153.77 78.9414 154.292 79.0488 154.634 79.1953C154.976 79.332 155.2 79.5615 155.308 79.8838C155.415 80.1963 155.474 80.6553 155.483 81.2607L155.791 96.2168H156.274L144.087 77.8477ZM150.693 75.958C151.377 75.958 151.963 75.6699 152.451 75.0938C152.939 74.5176 153.174 73.541 153.154 72.1641H152.012C151.982 72.8281 151.885 73.292 151.719 73.5557C151.562 73.8096 151.338 73.9365 151.045 73.9365C150.84 73.9365 150.645 73.8926 150.459 73.8047C150.273 73.7168 150.068 73.5898 149.844 73.4238L149.419 73.1016C149.058 72.8379 148.711 72.6279 148.379 72.4717C148.047 72.3057 147.671 72.2227 147.251 72.2227C146.567 72.2227 145.981 72.5156 145.493 73.1016C145.005 73.6777 144.771 74.6543 144.79 76.0312H145.947C145.967 75.3672 146.055 74.9082 146.211 74.6543C146.377 74.3906 146.606 74.2588 146.899 74.2588C147.104 74.2588 147.3 74.3027 147.485 74.3906C147.671 74.4785 147.876 74.6055 148.101 74.7715L148.525 75.0938C148.877 75.3477 149.219 75.5576 149.551 75.7236C149.883 75.8799 150.264 75.958 150.693 75.958ZM160.786 88.4238C160.786 90.123 161.079 91.6514 161.665 93.0088C162.261 94.3564 163.066 95.5088 164.082 96.4658C165.098 97.4229 166.25 98.1553 167.539 98.6631C168.828 99.1611 170.171 99.4102 171.567 99.4102C173.208 99.4102 174.692 99.127 176.021 98.5605C177.358 97.9941 178.501 97.208 179.448 96.2021C180.405 95.1963 181.138 94.0293 181.646 92.7012C182.153 91.3633 182.407 89.9326 182.407 88.4092C182.407 86.71 182.109 85.1865 181.514 83.8389C180.928 82.4912 180.127 81.3389 179.111 80.3818C178.096 79.4248 176.943 78.6973 175.654 78.1992C174.365 77.6914 173.018 77.4375 171.611 77.4375C169.971 77.4375 168.486 77.7207 167.158 78.2871C165.83 78.8535 164.688 79.6396 163.73 80.6455C162.783 81.6514 162.056 82.8184 161.548 84.1465C161.04 85.4746 160.786 86.9004 160.786 88.4238ZM164.917 88.1602C164.917 86.4512 165.137 84.8936 165.576 83.4873C166.025 82.0811 166.724 80.9629 167.671 80.1328C168.628 79.3027 169.873 78.8877 171.406 78.8877C172.471 78.8877 173.423 79.1416 174.263 79.6494C175.112 80.1572 175.835 80.8604 176.431 81.7588C177.026 82.6572 177.48 83.7021 177.793 84.8936C178.115 86.0752 178.276 87.335 178.276 88.6729C178.276 90.3916 178.052 91.9541 177.603 93.3604C177.163 94.7666 176.465 95.8848 175.508 96.7148C174.551 97.5449 173.311 97.96 171.787 97.96C170.723 97.96 169.766 97.7061 168.916 97.1982C168.066 96.6904 167.344 95.9873 166.748 95.0889C166.152 94.1807 165.698 93.1357 165.386 91.9541C165.073 90.7725 164.917 89.5078 164.917 88.1602ZM191.606 99.4102C193.062 99.4102 194.37 99.1514 195.532 98.6338C196.704 98.1162 197.632 97.3887 198.315 96.4512C199.009 95.5137 199.355 94.4199 199.355 93.1699C199.355 91.6367 198.906 90.3623 198.008 89.3467C197.119 88.3311 195.742 87.501 193.877 86.8564L192.412 86.373C191.045 85.8945 190.005 85.3525 189.292 84.7471C188.589 84.1318 188.237 83.3115 188.237 82.2861C188.237 81.2705 188.599 80.4502 189.321 79.8252C190.044 79.2002 191.089 78.8877 192.456 78.8877C193.315 78.8877 194.087 79.0586 194.771 79.4004C195.454 79.7422 196.03 80.2695 196.499 80.9824C196.978 81.6855 197.319 82.5693 197.524 83.6338H198.477L198.315 79.0049C197.739 78.5752 196.948 78.209 195.942 77.9062C194.937 77.5938 193.804 77.4375 192.544 77.4375C190.981 77.4375 189.629 77.6816 188.486 78.1699C187.354 78.6582 186.475 79.3516 185.85 80.25C185.234 81.1387 184.927 82.1836 184.927 83.3848C184.927 84.8496 185.396 86.0801 186.333 87.0762C187.271 88.0723 188.638 88.8828 190.435 89.5078L191.899 89.9912C193.325 90.4893 194.37 91.0752 195.034 91.749C195.708 92.4229 196.045 93.2822 196.045 94.3271C196.045 95.4014 195.649 96.2754 194.858 96.9492C194.067 97.623 193.003 97.96 191.665 97.96C190.952 97.96 190.273 97.8574 189.629 97.6523C188.984 97.4375 188.398 97.1201 187.871 96.7002C187.344 96.2803 186.89 95.7529 186.509 95.1182C186.128 94.4736 185.84 93.7217 185.645 92.8623H184.707L184.883 97.6377C185.547 98.1357 186.47 98.5557 187.651 98.8975C188.833 99.2393 190.151 99.4102 191.606 99.4102Z" fill="white"/>
</svg>
